<svg width="96" height="96" viewBox="0 0 96 96" fill="none" xmlns="http://www.w3.org/2000/svg">
<rect width="96" height="96" fill="black"/>
<path d="M81.9915 42.5613C82.7152 43.8725 83.077 45.5725 83.077 47.6547C83.077 49.7369 82.7085 51.4435 81.9714 52.7679C81.0401 54.4481 79.6062 55.2849 77.6697 55.2849C75.7333 55.2849 74.2994 54.4481 73.368 52.7679C72.631 51.4369 72.2625 49.7303 72.2625 47.6547C72.2625 45.5725 72.6243 43.8791 73.3479 42.5613C74.2726 40.881 75.7132 40.0442 77.6697 40.0442C79.6263 40.0442 81.0669 40.881 81.9915 42.5613V42.5613ZM80.4504 47.4834C80.4504 46.1787 80.303 45.0783 80.0015 44.1954C79.5391 42.8644 78.782 42.1988 77.73 42.1988C76.6513 42.1988 75.8874 42.8578 75.4385 44.1756C75.1235 45.0651 74.9694 46.1655 74.9694 47.4834C74.9694 51.0349 75.8941 52.8074 77.7367 52.8074C78.8021 52.8074 79.5592 52.1353 80.0082 50.7911C80.303 49.9148 80.4504 48.8144 80.4504 47.4834V47.4834Z" fill="white"/>
<path d="M81.1942 38.8713C81.1942 37.8368 82.0451 37 83.0971 37C84.1491 37 85 37.8368 85 38.8713C85 39.9058 84.1491 40.7426 83.0971 40.7426C82.0518 40.7426 81.1942 39.9058 81.1942 38.8713V38.8713ZM81.9044 38.8713C81.9044 39.5237 82.4404 40.0508 83.1038 40.0508C83.7671 40.0508 84.3032 39.5237 84.3032 38.8713C84.3032 38.219 83.7671 37.6919 83.1038 37.6919C82.4404 37.6919 81.9044 38.219 81.9044 38.8713Z" fill="white"/>
<path d="M26.7528 45.1838C26.7528 45.3881 26.6992 45.6385 26.592 45.9482L23.751 54.0001C23.4495 54.8304 22.967 55.2521 22.297 55.2521C21.5331 55.2521 21.0239 54.804 20.7626 53.9013L18.9602 47.635L18.8731 47.6416L17.0371 53.8617C16.7624 54.7908 16.2599 55.2521 15.5228 55.2521C14.8126 55.2521 14.2966 54.7908 13.9683 53.8617L11.4288 46.6796C11.1407 45.8757 11 45.3551 11 45.1245C11 44.7753 11.1139 44.492 11.3484 44.2679C11.5829 44.0439 11.8711 43.9385 12.2262 43.9385C12.8828 43.9385 13.3251 44.3075 13.5596 45.052L15.6702 51.9179C15.6836 51.8916 15.697 51.8521 15.7104 51.7993L17.6134 45.1113C17.8479 44.3075 18.27 43.9055 18.8798 43.9055C19.4962 43.9055 19.925 44.314 20.1729 45.1311L22.1831 51.8784C22.1965 51.8521 22.2099 51.8191 22.2233 51.7796L24.2736 45.0323C24.4948 44.3075 24.9236 43.9451 25.5668 43.9451C25.9354 43.9451 26.2235 44.0637 26.4379 44.2943C26.6456 44.5249 26.7528 44.8214 26.7528 45.1838V45.1838Z" fill="white"/>
<path d="M37.688 48.9527C37.688 49.3941 37.5406 49.7434 37.2458 49.9872C36.9509 50.2376 36.569 50.3628 36.1067 50.3628H29.8887C29.9155 51.1535 30.2036 51.7926 30.753 52.2868C31.3025 52.7744 31.9792 53.0248 32.7833 53.0248C33.4533 53.0248 34.2105 52.8139 35.0547 52.3922C35.899 51.9705 36.3613 51.7597 36.4417 51.7597C37.1252 51.7597 37.4669 52.1023 37.4669 52.7876C37.4669 53.005 37.3664 53.2422 37.1587 53.5124C36.7231 54.079 36.0531 54.5205 35.1485 54.8434C34.3579 55.1267 33.5471 55.2651 32.7095 55.2651C31.088 55.2651 29.7613 54.6984 28.7362 53.5717C27.7646 52.4976 27.2822 51.1469 27.2822 49.5259C27.2822 47.9577 27.778 46.6135 28.7697 45.5065C29.7613 44.3996 31.0478 43.8461 32.6291 43.8461C34.0228 43.8461 35.2155 44.3534 36.2005 45.3682C37.1922 46.3697 37.688 47.5689 37.688 48.9527V48.9527ZM35.1284 48.61C35.1016 47.8589 34.8671 47.2263 34.4249 46.7189C33.9826 46.2116 33.3863 45.9546 32.6358 45.9546C31.8854 45.9546 31.2555 46.2116 30.7396 46.7189C30.2304 47.2263 29.9423 47.8589 29.8887 48.61H35.1284Z" fill="white"/>
<path d="M44.489 43.8593C45.2394 43.8593 45.9363 43.9779 46.5795 44.2217C47.4372 44.5445 47.866 45.0058 47.866 45.612C47.866 46.3236 47.5243 46.6794 46.8408 46.6794C46.5393 46.6794 46.1976 46.5938 45.8157 46.429C45.4337 46.2643 44.9982 46.1786 44.5225 46.1786C43.6447 46.1786 42.9546 46.541 42.4453 47.2659C41.9964 47.8984 41.7686 48.6562 41.7686 49.5523C41.7686 50.5143 41.9897 51.2984 42.4252 51.9046C42.9211 52.6031 43.638 52.9457 44.5828 52.9457C44.9245 52.9457 45.3667 52.8403 45.9162 52.636C46.4656 52.4252 46.8006 52.3263 46.9212 52.3263C47.2362 52.3263 47.4908 52.4318 47.6784 52.636C47.8727 52.8469 47.9665 53.1039 47.9665 53.4135C47.9665 54.1252 47.3367 54.6655 46.0837 55.0477C45.5812 55.1926 45.025 55.2717 44.422 55.2717C42.7804 55.2717 41.4872 54.7116 40.529 53.598C39.611 52.5504 39.1554 51.2062 39.1554 49.5721C39.1554 47.9643 39.6244 46.6267 40.5692 45.5658C41.5743 44.4193 42.8742 43.8593 44.489 43.8593V43.8593Z" fill="white"/>
<path d="M70.9022 50.2244C70.9022 51.7136 70.4332 52.9326 69.4884 53.8683C68.5437 54.8105 67.3175 55.2783 65.8032 55.2783C64.3425 55.2783 63.1565 54.7446 62.2385 53.6903C61.3809 52.6954 60.952 51.4698 60.952 50.007C60.952 47.3054 62.4864 44.4194 65.5619 41.3488C66.4464 40.4659 67.0629 40.0178 67.4046 40.0178C67.7463 40.0178 68.0411 40.1298 68.2823 40.3605C68.5303 40.5911 68.6509 40.8678 68.6509 41.2039C68.6509 41.5004 68.5035 41.7969 68.2019 42.0868C66.8484 43.4047 65.7831 44.6632 65.0058 45.8756H65.046C65.5888 45.6318 66.1918 45.5132 66.8484 45.5132C68.1014 45.5132 69.1065 46.0008 69.8569 46.9826C70.5538 47.8721 70.9022 48.9527 70.9022 50.2244V50.2244ZM68.2019 50.2442C68.2019 49.5062 68.0076 48.8934 67.6257 48.3992C67.2438 47.9116 66.6809 47.6613 65.9439 47.6613C65.0594 47.6613 64.4028 47.9973 63.9806 48.6694C63.7461 49.0318 63.6322 49.5062 63.6322 50.0992C63.6322 50.8636 63.8064 51.5027 64.1616 52.0101C64.5703 52.59 65.1465 52.8733 65.8836 52.8733C66.6206 52.8733 67.2036 52.6097 67.6257 52.0892C68.0076 51.6148 68.2019 50.9954 68.2019 50.2442Z" fill="white"/>
<path d="M59.4779 50.7119C59.4779 52.1088 58.9821 53.229 57.9837 54.0724C57.0389 54.8763 55.8463 55.2782 54.399 55.2782C53.28 55.2782 52.3218 55.0146 51.5312 54.4941C50.2782 53.6639 49.6483 52.6623 49.6483 51.496C49.6483 51.16 49.7555 50.8701 49.9766 50.6329C50.1978 50.3891 50.4725 50.2704 50.8142 50.2704C51.1693 50.2704 51.5043 50.5077 51.8193 50.9755C52.3218 51.753 52.6166 52.1813 52.697 52.267C53.146 52.7348 53.7289 52.972 54.4392 52.972C55.3973 52.972 56.0741 52.6228 56.4895 51.9243C56.6771 51.5751 56.7776 51.1336 56.7776 50.5933C56.7776 49.2755 55.9937 48.5441 54.4258 48.3991C53.5413 48.3201 53.0924 47.9511 53.0924 47.2921C53.0924 46.8111 53.347 46.4685 53.8629 46.2642C54.8278 45.915 55.3102 45.7305 55.3303 45.7173C55.8463 45.3813 56.1009 44.7949 56.1009 43.9646C56.1009 43.4704 55.9535 43.0751 55.6519 42.7852C55.3504 42.4952 54.9484 42.3503 54.4459 42.3503C53.8227 42.3503 53.3269 42.4952 52.9785 42.7917C52.6769 43.0487 52.429 43.4836 52.2213 44.103C52.0605 44.5708 51.7456 44.808 51.2832 44.808C50.9549 44.808 50.6869 44.6697 50.4792 44.3863C50.2715 44.103 50.1643 43.7933 50.1643 43.4573C50.1643 43.0421 50.2782 42.627 50.5127 42.2053C50.8946 41.5069 51.4842 40.9665 52.2749 40.5712C52.9986 40.2088 53.7892 40.0309 54.6536 40.0309C55.8128 40.0309 56.7776 40.3735 57.5482 41.0654C58.3187 41.7572 58.7074 42.6666 58.7074 43.7933C58.7074 45.1507 58.1311 46.2247 56.9853 47.0154C58.6471 47.6875 59.4779 48.9131 59.4779 50.7119Z" fill="white"/>
</svg>
